<?xml version="1.0" encoding="UTF-8"?><svg id="Layer_1" xmlns="http://www.w3.org/2000/svg" viewBox="0 0 4100 674.4"><defs><style>.cls-1{fill:#fff;}.cls-2{fill:#fcb82c;}</style></defs><g id="artwork"><g><g id="Logo_-_Full_Color"><g><path class="cls-1" d="M226,120.6c0-38.6,29.3-67.9,70.2-67.9,32.8,0,57.4,18.7,65.6,45.7,0,2.3,0,3.5-2.3,4.7h-18.8c-1.2,0-2.3-1.2-3.5-2.3-7-15.2-21.1-24.6-41-24.6-26.9,0-44.5,18.7-44.5,45.7s17.6,45.7,44.5,45.7c18.7,0,34-9.4,41-24.6,0-1.2,2.3-2.3,3.5-2.3h17.6c2.3,0,3.5,1.2,3.5,3.5v1.2c-8.2,26.9-32.8,45.7-65.6,45.7-41-1.4-70.2-30.7-70.2-70.5Z"/><path class="cls-1" d="M379.3,0h17.6c2.3,0,3.5,1.2,3.5,3.5V182.6c0,2.3-1.2,3.5-3.5,3.5h-17.6c-2.3,0-3.5-1.2-3.5-3.5V3.5c0-2.3,1.2-3.5,3.5-3.5Z"/><path class="cls-1" d="M413.3,121.8c0-41,29.3-69.1,70.2-69.1s69.1,28.1,69.1,69.1v59.7c0,2.3-1.2,3.5-3.5,3.5h-15.2c-2.3,0-3.5-1.2-3.5-3.5v-24.6c-8.2,21.1-28.1,31.6-50.3,31.6-34,1.2-66.8-23.4-66.8-66.7h0Zm114.7-1.2c0-25.8-17.6-45.7-44.5-45.7s-44.5,18.8-44.5,45.7,17.6,45.7,44.5,45.7,44.5-18.8,44.5-45.7Z"/><path class="cls-1" d="M566.6,148.7h17.6c1.2,0,3.5,1.2,3.5,3.5,2.3,9.4,11.7,15.2,28.1,15.2,18.7,0,28.1-8.2,28.1-18.7,0-11.7-14-14-30.4-16.4-22.2-3.5-50.3-7-50.3-36.3,0-25.8,19.9-42.1,51.5-42.1,29.3,0,48,15.2,50.3,36.3,0,2.3-1.2,3.5-3.5,3.5h-17.6c-1.2,0-3.5-1.2-3.5-2.3-2.3-8.2-10.5-14-25.8-14-16.4,0-25.8,8.2-25.8,17.6,0,11.7,14,14,29.3,15.2,22.2,3.5,50.3,7,50.3,36.3,0,25.8-21.1,43.3-53.9,43.3-30.4,0-50.3-15.2-53.9-36.3,2.5-2.5,3.7-4.8,6-4.8h0Z"/><path class="cls-1" d="M683.7,148.7h17.6c1.2,0,3.5,1.2,3.5,3.5,2.3,9.4,11.7,15.2,28.1,15.2,18.7,0,28.1-8.2,28.1-18.7,0-11.7-14-14-30.4-16.4-22.2-3.5-50.3-7-50.3-36.3,0-25.8,19.9-42.1,51.5-42.1,29.3,0,48,15.2,50.3,36.3,0,2.3-1.2,3.5-3.5,3.5h-17.6c-1.2,0-3.5-1.2-3.5-2.3-2.3-8.2-10.5-14-25.8-14-16.4,0-25.8,8.2-25.8,17.6,0,11.7,14,14,29.3,15.2,22.2,3.5,50.3,7,50.3,36.3,0,25.8-21.1,43.3-53.9,43.3-30.4,0-50.3-15.2-53.9-36.3,2.5-2.5,3.7-4.8,6-4.8q-1.1,0,0,0h0Z"/><path class="cls-2" d="M101.9,114.8H12.9C5.9,114.8,0,108.9,0,101.9V12.9C0,5.9,5.9,0,12.9,0H101.9C108.9,0,114.8,5.9,114.8,12.9V101.9c1.1,7-4.7,12.9-12.9,12.9Z"/><g><path class="cls-1" d="M176.8,113.6h-34c-7,0-12.9-5.9-12.9-12.9v-34c0-7,5.9-12.9,12.9-12.9h32.8c7,0,12.9,5.9,12.9,12.9v32.8c1.2,8.2-4.7,14.1-11.7,14.1Z"/><path class="cls-1" d="M176.8,188.5h-34c-7,0-12.9-5.9-12.9-12.9v-32.8c0-7,5.9-12.9,12.9-12.9h32.8c7,0,12.9,5.9,12.9,12.9v32.8c1.2,7.1-4.7,12.9-11.7,12.9Z"/><path class="cls-1" d="M103,188.5h-32.8c-7,0-12.9-5.9-12.9-12.9v-32.8c0-7,5.9-12.9,12.9-12.9h32.8c7,0,12.9,5.9,12.9,12.9v32.8c0,7.1-5.8,12.9-12.9,12.9Z"/></g></g></g><g><path class="cls-1" d="M0,468.3c0-118.2,86.6-204.9,209.6-204.9,98.3,0,173.3,55,197.9,138.1,2.3,5.9-3.5,12.9-9.4,12.9h-56.2c-3.5,0-8.2-2.3-9.4-5.9-19.9-45.7-64.4-76.1-122.9-76.1-80.8,0-133.5,56.2-133.5,135.8s53.9,135.8,133.5,135.8c58.5,0,103-29.3,122.9-76.1,1.2-3.5,4.7-5.9,9.4-5.9h56.2c7,0,11.7,7,9.4,12.9-24.7,83.3-99.6,138.3-197.9,138.3C86.6,673.2,0,586.6,0,468.3Z"/><path class="cls-1" d="M430.8,468.3c0-118.2,86.6-204.9,209.6-204.9s209.6,86.7,209.6,204.9-86.7,204.9-209.6,204.9-209.6-86.6-209.6-204.9Zm343.1,0c0-78.4-53.9-135.8-133.5-135.8s-133.5,56.2-133.5,135.8,53.9,135.8,133.5,135.8,133.5-56.2,133.5-135.8Z"/><path class="cls-1" d="M910.9,104.2h51.5c7,0,11.7,4.7,11.7,11.7V652.1c0,7-4.7,11.7-11.7,11.7h-51.5c-7,0-11.7-4.7-11.7-11.7V117.1c-.1-7,5.8-12.9,11.7-12.9Z"/><path class="cls-1" d="M1065.4,104.2h51.5c7,0,11.7,4.7,11.7,11.7V652.1c0,7-4.7,11.7-11.7,11.7h-51.5c-7,0-11.7-4.7-11.7-11.7V117.1c0-7,4.7-12.9,11.7-12.9Z"/><path class="cls-1" d="M1177.8,471.8c0-121.8,86.6-208.4,210.7-208.4s207.2,83.1,207.2,208.4v180.3c0,7-4.7,11.7-11.7,11.7h-44.5c-7,0-11.7-4.7-11.7-11.7v-73.8c-25.8,63.2-83.1,94.8-151,94.8-103,.1-199-72.5-199-201.3Zm343-3.5c0-78.4-53.9-135.8-133.5-135.8s-133.5,56.2-133.5,135.8,53.9,135.8,133.5,135.8c80.8,0,133.5-56.2,133.5-135.8Z"/><path class="cls-1" d="M1646.1,466V115.9c0-7,4.7-11.7,11.7-11.7h51.5c7,0,11.7,4.7,11.7,11.7v227.1c28.1-50.3,82-78.4,145.2-78.4,101.9,0,197.9,73.8,197.9,202.5,0,121.8-86.6,207.2-210.7,207.2-120.7-1.1-207.3-81.9-207.3-208.3Zm341.8,2.3c0-78.4-53.9-135.8-133.5-135.8s-133.5,56.2-133.5,135.8,53.9,135.8,133.5,135.8c79.7,0,133.5-56.2,133.5-135.8Z"/><path class="cls-1" d="M2082.8,468.3c0-118.2,86.6-204.9,209.6-204.9s209.6,86.6,209.6,204.9-86.7,204.9-209.7,204.9-209.5-86.6-209.5-204.9Zm343,0c0-78.4-53.9-135.8-133.5-135.8s-133.5,56.2-133.5,135.8,53.9,135.8,133.5,135.8c80.8,0,133.5-56.2,133.5-135.8Z"/><path class="cls-1" d="M2537,434.4c0-114.7,67.9-169.8,167.4-169.8s167.4,53.9,167.4,163.9v1.2c0,5.9-4.7,9.4-9.4,9.4h-55c-5.9,0-9.4-4.7-9.4-9.4h0c0-67.9-37.5-96-92.5-96s-92.5,29.3-92.5,100.7v221.3c0,4.7-3.5,8.2-8.2,8.2h-59.7c-4.7,0-8.2-3.5-8.2-8.2l.1-221.3h0Z"/><path class="cls-1" d="M2892.9,471.8c0-121.8,86.6-208.4,210.7-208.4s207.2,83.1,207.2,208.4v180.3c0,7-4.7,11.7-11.7,11.7h-44.5c-7,0-11.7-4.7-11.7-11.7v-73.8c-25.8,63.2-83.1,94.8-151,94.8-103,.1-199-72.5-199-201.3Zm343.1-3.5c0-78.4-53.9-135.8-133.5-135.8s-133.5,56.2-133.5,135.8,53.9,135.8,133.5,135.8c79.6,0,133.5-56.2,133.5-135.8Z"/><path class="cls-1" d="M3349.5,516.3V148.7c0-7,4.7-11.7,11.7-11.7h51.5c7,0,11.7,4.7,11.7,11.7v126.4h202.6c7,0,11.7,4.7,11.7,11.7v44.5c0,7-4.7,11.7-11.7,11.7h-202.5v173.3c0,60.9,32.8,87.8,80.8,87.8s82-25.8,82-87.8h0c0-4.7,3.5-8.2,8.2-8.2h56.2c4.7,0,8.2,3.5,8.2,8.2h0c0,105.4-63.2,156.9-155.7,156.9s-154.7-51.5-154.7-156.9Z"/><path class="cls-1" d="M3682,468.3c0-118.2,86.6-204.9,209.6-204.9s208.4,86.6,208.4,204.9v16.4c0,7-4.7,11.7-11.7,11.7h-326.6c10.5,69.1,63.2,107.7,131.1,107.7,48,0,82-14,105.4-44.5,2.3-3.5,5.9-4.7,9.4-4.7h58.5c9.4,0,14,9.4,10.5,17.6-34,62.1-99.5,101.9-182.6,101.9-125.3-1.2-212-87.8-212-206.1Zm338.4-38.6c-15.2-62.1-65.6-96-128.8-96s-113.6,35.1-128.8,96h257.6Z"/></g></g></g></svg>